<?xml version="1.0" encoding="UTF-8" standalone="no"?>
<!-- Created with Inkscape (http://www.inkscape.org/) -->

<svg
   xmlns:dc="http://purl.org/dc/elements/1.1/"
   xmlns:cc="http://creativecommons.org/ns#"
   xmlns:rdf="http://www.w3.org/1999/02/22-rdf-syntax-ns#"
   xmlns:svg="http://www.w3.org/2000/svg"
   xmlns="http://www.w3.org/2000/svg"
   xmlns:sodipodi="http://sodipodi.sourceforge.net/DTD/sodipodi-0.dtd"
   xmlns:inkscape="http://www.inkscape.org/namespaces/inkscape"
   width="16"
   height="16"
   viewBox="0 0 4.2333332 4.2333335"
   version="1.1"
   id="svg8"
   inkscape:version="0.92.5 (2060ec1f9f, 2020-04-08)"
   sodipodi:docname="favicon.svg"
   inkscape:export-filename="/home/anakai/lampstack-7.4.12-0/apache2/htdocs/UWI-COMP2140-Project/favicon.png"
   inkscape:export-xdpi="299.89999"
   inkscape:export-ydpi="299.89999">
  <defs
     id="defs2" />
  <sodipodi:namedview
     id="base"
     pagecolor="#ffffff"
     bordercolor="#666666"
     borderopacity="1.0"
     inkscape:pageopacity="0.0"
     inkscape:pageshadow="2"
     inkscape:zoom="31.678384"
     inkscape:cx="5.2850266"
     inkscape:cy="8.4332916"
     inkscape:document-units="mm"
     inkscape:current-layer="layer1"
     showgrid="false"
     units="px"
     inkscape:pagecheckerboard="true"
     inkscape:window-width="1366"
     inkscape:window-height="715"
     inkscape:window-x="1360"
     inkscape:window-y="24"
     inkscape:window-maximized="1" />
  <metadata
     id="metadata5">
    <rdf:RDF>
      <cc:Work
         rdf:about="">
        <dc:format>image/svg+xml</dc:format>
        <dc:type
           rdf:resource="http://purl.org/dc/dcmitype/StillImage" />
        <dc:title></dc:title>
      </cc:Work>
    </rdf:RDF>
  </metadata>
  <g
     inkscape:label="Layer 1"
     inkscape:groupmode="layer"
     id="layer1"
     transform="translate(0,-292.76665)">
    <path
       d="m 0.31828958,293.83666 c -0.0122917,0.0565 -0.0368681,0.12535 -0.0172042,0.18434 0.0172042,0.054 0.0540723,0.0591 0.066364,0.10573 0.007372,0.0344 -0.004948,0.0737 0.0196639,0.15731 0.0270361,0.10328 0.11552023,0.23595 0.18434036,0.31706 0.19417165,0.22858 0.33427033,0.28757 0.49894756,0.5776 0.036868,0.0639 0.071278,0.13764 0.08111,0.21138 0.039328,0.26545 -0.24087173,0.34902 -0.40063292,0.28265 -0.12289313,-0.0491 -0.18679802,-0.18188 -0.17696677,-0.3097 0,0 0.0516125,-0.32934 0.0516125,-0.32934 0.007372,-0.0393 0.0122917,-0.10328 -0.0344083,-0.12044 -0.0589917,-0.0197 -0.10323067,0.0491 -0.11797784,0.0959 -0.0417875,0.1131 -0.0516125,0.27282 -0.0491598,0.39326 0.002439,0.29002 0.25807654,0.44733 0.52106833,0.44733 0,0 0.1179779,0 0.1179779,0 0.088483,0 0.1523876,-0.0172 0.2359557,-0.0517 0.054073,-0.0221 0.1106039,-0.0565 0.1548452,-0.0959 0.2703654,-0.23841 0.034409,-0.68329 -0.1573035,-0.89221 0,0 -0.1425564,-0.14501 -0.1425564,-0.14501 0,0 -0.19417167,-0.18435 -0.19417167,-0.18435 -0.10077231,-0.10082 -0.18925564,-0.19171 -0.20400288,-0.34164 -0.004948,-0.0663 0.0221236,-0.13519 0.0467,-0.19663 0.0245764,0.0172 0.0491598,0.0344 0.0786521,0.0467 0.0172042,0.009 0.0442403,0.0172 0.0639042,0.0221 0.19662925,0.0344 0.13026675,-0.2507 0.13272435,-0.26791 0.00244,-0.0172 0.066364,-0.13518 0.078652,-0.15485 0.051613,-0.0712 0.2138341,-0.10573 0.2998599,-0.10819 0.036868,0 0.08111,0 0.1155199,0.0123 0.1671348,0.0565 0.1204354,0.2212 0.041781,0.32935 -0.1155199,0.16468 -0.3490169,0.22858 -0.4375003,0.35639 -0.1228931,0.17697 0.095857,0.4375 0.3047758,0.44734 0.2138342,0.009 0.3465592,-0.1991 0.4350427,-0.36868 0.1548459,-0.29741 0.2113764,-0.73246 -0.1081465,-0.94629 -0.044241,-0.0295 -0.0934,-0.0516 -0.1425563,-0.0639 -0.058992,-0.0172 -0.1499307,-0.0319 -0.2089189,-0.0295 -0.1720507,0.007 -0.3318127,0.0787 -0.3662224,0.0835 -0.022124,0 -0.11060423,-0.0172 -0.13026743,-0.0246 -0.0417875,-0.0197 -0.0589917,-0.0639 -0.0860251,-0.0983 -0.0467,-0.0591 -0.12535146,-0.12289 -0.20154525,-0.13027 -0.20646123,-0.0172 -0.27282376,0.24824 -0.29986057,0.28511 -0.0344083,0.0467 -0.0835674,0.0368 -0.15238758,0.1229 -0.10323067,0.13027 -0.0639042,0.32444 0.0983147,0.38097 z m 3.10920432,1.63203 c 0.14993,-0.086 0.2875703,-0.13519 0.4153794,-0.26545 0.1941717,-0.19418 0.3047759,-0.48174 0.1548459,-0.73491 -0.034409,-0.054 -0.090941,-0.11311 -0.137641,-0.15485 -0.066364,-0.054 -0.1302668,-0.086 -0.2089182,-0.11556 -0.420296,-0.15484 -0.9954373,-0.002 -1.3075867,0.30968 -0.1204355,0.12044 -0.2138341,0.25317 -0.2556182,0.4203 -0.04916,0.21876 -0.00737,0.40555 0.1523882,0.56777 0.044241,0.0442 0.2015453,0.14747 0.2138342,0.18435 0.012292,0.0393 -0.027036,0.14254 -0.039328,0.18433 -0.034409,0.11797 -0.034409,0.16714 -0.031949,0.29003 0,0.0344 0.00737,0.086 0,0.11797 -0.012292,0.0787 -0.1302668,0.25563 0.051613,0.38589 0.029496,0.0196 0.058992,0.032 0.090941,0.0419 0.051613,0.0147 0.08111,0.0197 0.132725,0.0197 0,0 0.1818828,0 0.1818828,0 0.3244383,-0.005 0.6267566,-0.23104 0.7914337,-0.5014 0.066364,-0.10819 0.1155187,-0.22367 0.1106038,-0.35394 -0.00737,-0.18189 -0.1302674,-0.36622 -0.3146072,-0.39572 z m -0.2998605,-0.0517 c 0.034409,-0.14993 0.1032304,-0.23841 0.036868,-0.39571 -0.054073,-0.13274 -0.2089189,-0.23841 -0.3514752,-0.24825 -0.044241,-0.005 -0.1179778,-0.007 -0.1523875,0.0295 -0.054073,0.0591 0.034409,0.10819 0.031949,0.20645 0,0.0737 -0.086026,0.33674 -0.1130625,0.4203 -0.1745084,-0.0909 -0.1376403,-0.38097 -0.061445,-0.52598 0.1597612,-0.30478 0.4915739,-0.49158 0.8307594,-0.48666 0.341644,0.002 0.5038636,0.32198 0.3539329,0.61692 -0.1155199,0.22613 -0.3391855,0.33427 -0.5751413,0.38343 z m 0,0.20155 c 0.056532,-0.007 0.1302674,-0.009 0.1794244,0.0221 0.105689,0.0712 0.041781,0.26545 0,0.35393 -0.1155199,0.24332 -0.3613064,0.56039 -0.6488767,0.59235 -0.1056891,0.009 -0.1990876,-0.054 -0.1646778,-0.1696 0.024576,-0.0884 0.1130624,-0.0197 0.1646778,-0.13272 0,0 0.04916,-0.22367 0.04916,-0.22367 0.034409,-0.10574 0.1032293,-0.204 0.1720501,-0.29003 0.029496,-0.0344 0.054073,-0.0786 0.090941,-0.10328 0.039328,-0.0246 0.1130624,-0.0418 0.1573035,-0.0491 z"
       id="Selection"
       inkscape:connector-curvature="0"
       style="fill:#fefbfd;fill-opacity:1;stroke:none;stroke-width:0.05291667;stroke-miterlimit:4;stroke-dasharray:none;stroke-opacity:0.94117647" />
    <path
       d="m 0.29535573,293.85818 c -0.0218448,0.0755 -0.0486892,0.21382 0.0286573,0.24819 0.0443766,0.0182 0.15219899,-0.0135 0.15219899,-0.0135 0.0364465,-0.0173 0.12868711,-0.0798 0.17042311,-0.14942 0,0 0.0486892,-0.10615 0.0486892,-0.10615 0,0 0.0243446,0.002 0.0243446,0.002 0,0 0.0294934,0.0417 0.0594088,0.0822 0.0310247,0.0342 0.20325577,0.16291 0.29368457,0.0794 0.072899,-0.0959 0.020868,-0.26781 0.013912,-0.27478 0.00333,0.003 0.069978,-0.0644 0.089316,-0.12173 0.034641,-0.10267 0.016694,-0.23636 -0.068448,-0.30773 -0.06483,-0.0543 -0.12187009,-0.047 -0.15998933,-0.0417 -0.008764,-0.0366 -0.1318863,-0.23497 -0.27128636,-0.24708 -0.21508112,-0.0184 -0.28575419,0.27379 -0.31135288,0.31135 -0.019196,0.0105 -0.11421857,0.0307 -0.18781366,0.12522 -0.11894843,0.15288 -0.0261575,0.32344 0.11825311,0.41388 z"
       id="Selection #1"
       inkscape:connector-curvature="0"
       style="fill:#f171ab;fill-opacity:1;stroke:none;stroke-width:0.01391212" />
    <path
       d="m 0.29198437,293.86379 c -0.0221704,0.0765 -0.049424,0.21704 0.0290898,0.25192 0.0450466,0.0185 0.15448529,-0.0137 0.15448529,-0.0137 0.0369976,-0.0175 0.13062055,-0.081 0.17298399,-0.15166 0,0 0.049424,-0.1077 0.049424,-0.1077 0,0 0.0247118,0.001 0.0247118,0.001 0,0 0.029937,0.0423 0.0602972,0.0834 0.03149,0.0347 0.2063099,0.16536 0.29809745,0.0806 0.073995,-0.0973 0.021182,-0.27184 0.014121,-0.27889 0.00339,0.004 -0.093623,0.0687 -0.17312526,0.0654 -0.13415086,0.001 -0.16239315,-0.11478 -0.24528422,-0.10595 -0.10068377,-0.008 -0.10590867,0.13585 -0.19247118,0.17468 -0.0776663,0.0302 -0.17114823,0.0103 -0.19232995,0 z"
       id="Selection #2"
       inkscape:connector-curvature="0"
       style="fill:#9c3b82;fill-opacity:1;stroke:none;stroke-width:0.01412115" />
    <path
       d="m 0.64426941,293.0085 c 0.17096136,-0.0102 0.27616834,0.21692 0.30328356,0.24228 -0.16770754,0.0746 -0.21515915,0.25596 -0.30667298,0.24078 -0.0688726,0.019 -0.0949032,-0.14588 -0.25922139,-0.17123 0.002305,-0.0557 0.0786341,-0.28742 0.26261081,-0.31183 z"
       id="Path"
       inkscape:connector-curvature="0"
       style="fill:#bc3b81;fill-opacity:1;stroke:none;stroke-width:0.0135576" />
  </g>
</svg>
