<?xml version="1.0" encoding="UTF-8" standalone="no"?>
<svg
   xmlns:dc="http://purl.org/dc/elements/1.1/"
   xmlns:cc="http://creativecommons.org/ns#"
   xmlns:rdf="http://www.w3.org/1999/02/22-rdf-syntax-ns#"
   xmlns:svg="http://www.w3.org/2000/svg"
   xmlns="http://www.w3.org/2000/svg"
   xmlns:sodipodi="http://sodipodi.sourceforge.net/DTD/sodipodi-0.dtd"
   xmlns:inkscape="http://www.inkscape.org/namespaces/inkscape"
   enable-background="new 0 0 24 24"
   viewBox="0 0 24 24"
   fill="black"
   width="48px"
   height="48px"
   version="1.1"
   id="svg8"
   sodipodi:docname="groups-white-48dp.svg"
   inkscape:version="0.92.5 (2060ec1f9f, 2020-04-08)">
  <metadata
     id="metadata14">
    <rdf:RDF>
      <cc:Work
         rdf:about="">
        <dc:format>image/svg+xml</dc:format>
        <dc:type
           rdf:resource="http://purl.org/dc/dcmitype/StillImage" />
        <dc:title></dc:title>
      </cc:Work>
    </rdf:RDF>
  </metadata>
  <defs
     id="defs12" />
  <sodipodi:namedview
     pagecolor="#ffffff"
     bordercolor="#666666"
     borderopacity="1"
     objecttolerance="10"
     gridtolerance="10"
     guidetolerance="10"
     inkscape:pageopacity="0"
     inkscape:pageshadow="2"
     inkscape:window-width="790"
     inkscape:window-height="480"
     id="namedview10"
     showgrid="false"
     inkscape:zoom="4.9166667"
     inkscape:cx="0.61016949"
     inkscape:cy="24"
     inkscape:window-x="0"
     inkscape:window-y="24"
     inkscape:window-maximized="0"
     inkscape:current-layer="svg8" />
  <rect
     fill="none"
     height="24"
     width="24"
     id="rect2" />
  <g
     id="g6"
     style="fill:#ffffff;fill-opacity:0.93048126">
    <path
       d="m 12,12.75 c 1.63,0 3.07,0.39 4.24,0.9 1.08,0.48 1.76,1.56 1.76,2.73 L 18,18 H 6 V 16.39 C 6,15.21 6.68,14.13 7.76,13.66 8.93,13.14 10.37,12.75 12,12.75 Z M 4,13 C 5.1,13 6,12.1 6,11 6,9.9 5.1,9 4,9 2.9,9 2,9.9 2,11 c 0,1.1 0.9,2 2,2 z m 1.13,1.1 C 4.76,14.04 4.39,14 4,14 3.01,14 2.07,14.21 1.22,14.58 0.48,14.9 0,15.62 0,16.43 V 18 h 4.5 v -1.61 c 0,-0.83 0.23,-1.61 0.63,-2.29 z M 20,13 c 1.1,0 2,-0.9 2,-2 0,-1.1 -0.9,-2 -2,-2 -1.1,0 -2,0.9 -2,2 0,1.1 0.9,2 2,2 z m 4,3.43 C 24,15.62 23.52,14.9 22.78,14.58 21.93,14.21 20.99,14 20,14 c -0.39,0 -0.76,0.04 -1.13,0.1 0.4,0.68 0.63,1.46 0.63,2.29 V 18 H 24 Z M 12,6 c 1.66,0 3,1.34 3,3 0,1.66 -1.34,3 -3,3 C 10.34,12 9,10.66 9,9 9,7.34 10.34,6 12,6 Z"
       id="path4"
       inkscape:connector-curvature="0"
       style="fill:#ffffff;fill-opacity:0.93048126" />
  </g>
</svg>
